{
    "asset" : {
        "generator" : "Khronos glTF Blender I/O v1.8.19",
        "version" : "2.0"
    },
    "scene" : 0,
    "scenes" : [
        {
            "name" : "Scene",
            "nodes" : [
                0
            ]
        }
    ],
    "nodes" : [
        {
            "mesh" : 0,
            "name" : "Sphere",
            "rotation" : [
                0.029258141294121742,
                0.12381089478731155,
                0.16997070610523224,
                0.9772025346755981
            ]
        }
    ],
    "meshes" : [
        {
            "name" : "Sphere.001",
            "primitives" : [
                {
                    "attributes" : {
                        "POSITION" : 0,
                        "NORMAL" : 1,
                        "TEXCOORD_0" : 2
                    },
                    "indices" : 3
                }
            ]
        }
    ],
    "accessors" : [
        {
            "bufferView" : 0,
            "componentType" : 5126,
            "count" : 2265088,
            "max" : [
                2.9654388427734375,
                2.9954614639282227,
                2.9654390811920166
            ],
            "min" : [
                -2.9654381275177,
                -2.9954614639282227,
                -2.965439796447754
            ],
            "type" : "VEC3"
        },
        {
            "bufferView" : 1,
            "componentType" : 5126,
            "count" : 2265088,
            "type" : "VEC3"
        },
        {
            "bufferView" : 2,
            "componentType" : 5126,
            "count" : 2265088,
            "type" : "VEC2"
        },
        {
            "bufferView" : 3,
            "componentType" : 5125,
            "count" : 3397632,
            "type" : "SCALAR"
        }
    ],
    "bufferViews" : [
        {
            "buffer" : 0,
            "byteLength" : 27181056,
            "byteOffset" : 0
        },
        {
            "buffer" : 0,
            "byteLength" : 27181056,
            "byteOffset" : 27181056
        },
        {
            "buffer" : 0,
            "byteLength" : 18120704,
            "byteOffset" : 54362112
        },
        {
            "buffer" : 0,
            "byteLength" : 13590528,
            "byteOffset" : 72482816
        }
    ],
    "buffers" : [
        {
            "byteLength" : 86073344,
            "uri" : "sphereWireframed.bin"
        }
    ]
}
