<?xml version="1.0" encoding="UTF-8"?><svg id="Layer_1" xmlns="http://www.w3.org/2000/svg" xmlns:xlink="http://www.w3.org/1999/xlink" viewBox="0 0 58 79"><defs><style>.cls-1{fill:#8a3ffc;filter:url(#drop-shadow-1);}.cls-1,.cls-2,.cls-3{opacity:.85;}.cls-2{fill:#d02670;filter:url(#drop-shadow-2);}.cls-3{fill:#ad3ffc;filter:url(#drop-shadow-3);}</style><filter id="drop-shadow-1" filterUnits="userSpaceOnUse"><feOffset dx="3" dy="3"/><feGaussianBlur result="blur" stdDeviation="3"/><feFlood flood-color="#000" flood-opacity=".25"/><feComposite in2="blur" operator="in"/><feComposite in="SourceGraphic"/></filter><filter id="drop-shadow-2" filterUnits="userSpaceOnUse"><feOffset dx="3" dy="3"/><feGaussianBlur result="blur-2" stdDeviation="3"/><feFlood flood-color="#000" flood-opacity=".25"/><feComposite in2="blur-2" operator="in"/><feComposite in="SourceGraphic"/></filter><filter id="drop-shadow-3" filterUnits="userSpaceOnUse"><feOffset dx="3" dy="3"/><feGaussianBlur result="blur-3" stdDeviation="3"/><feFlood flood-color="#000" flood-opacity=".25"/><feComposite in2="blur-3" operator="in"/><feComposite in="SourceGraphic"/></filter></defs><path class="cls-1" d="M22.65,6.56c2.85-.3,7.8-.3,10.58,0l-16.05,59.55c-2.85,.3-7.8,.3-10.58,0L22.65,6.56Z"/><path class="cls-2" d="M18.3,59.88c-.3-3.52-.3-7.05,0-10.57l17.02-7.73-17.02-7.72c-.3-3.53-.3-7.05,0-10.58l26.78,12.23c.3,4.05,.3,8.1,0,12.07l-26.78,12.3h0Z"/><path class="cls-3" d="M13.5,47.13c-.3-3.53-.3-7.05,0-10.57l17.03-7.73-17.03-7.72c-.3-3.52-.3-7.05,0-10.58l26.78,12.22c.3,4.05,.3,8.1,0,12.08l-26.78,12.3h0Z"/></svg>