<?xml version="1.0" encoding="UTF-8"?><svg xmlns="http://www.w3.org/2000/svg" viewBox="0 0 503.75 781"><defs><style>.cls-1{fill:#d02670;}.cls-1,.cls-2,.cls-3{mix-blend-mode:multiply;}.cls-4{isolation:isolate;}.cls-2{fill:#ad3ffc;}.cls-3{fill:#8a3ffc;}</style></defs><g class="cls-4"><g id="Layer_2"><g id="Layer_1-2"><g><path class="cls-3" d="M208.92,2.93c37.1-3.91,101.53-3.91,137.65,0L137.65,778.07c-37.1,3.91-101.53,3.91-137.65,0L208.92,2.93Z"/><path class="cls-1" d="M152.3,697.04c-3.9-45.88-3.9-91.77,0-137.65l221.61-100.55-221.61-100.55c-3.9-45.88-3.9-91.77,0-137.65l348.52,159.13c3.91,52.72,3.91,105.43,0,157.18l-348.52,160.11h0Z"/><path class="cls-2" d="M89.82,531.08c-3.9-45.88-3.9-91.77,0-137.65l221.61-100.55L89.82,192.32c-3.9-45.88-3.9-91.77,0-137.65L438.34,213.8c3.91,52.72,3.91,105.44,0,157.18L89.82,531.08h0Z"/></g></g></g></g></svg>