<svg xmlns="http://www.w3.org/2000/svg" xmlns:xlink="http://www.w3.org/1999/xlink" width="60" height="51.223" viewBox="0 0 60 51.223"><defs><linearGradient id="a" x1="0.5" x2="0.5" y2="1" gradientUnits="objectBoundingBox"><stop offset="0" stop-color="#8a3ffc"/><stop offset="1" stop-color="#d02670"/></linearGradient></defs><g transform="translate(-26.001 -59.649)"><g transform="translate(26.001 59.649)"><path d="M71.82,73.118A25.376,25.376,0,0,0,67.2,69.566L65.7,72.155a.393.393,0,0,1-.68-.394l1.5-2.589a25.163,25.163,0,0,0-5.387-2.233l-.35,1.309a.393.393,0,0,1-.76-.2l.352-1.309a25.3,25.3,0,0,0-5.782-.755v2.982a.393.393,0,1,1-.786,0V65.982a25.288,25.288,0,0,0-5.781.755l.352,1.309a.393.393,0,0,1-.76.2l-.35-1.309a25.333,25.333,0,0,0-5.387,2.233l1.5,2.589a.393.393,0,0,1-.68.394L41.2,69.566a25.315,25.315,0,0,0-4.624,3.552l.952.954a.391.391,0,1,1-.552.554l-.955-.954A25.276,25.276,0,0,0,32.468,78.3l2.586,1.491a.391.391,0,1,1-.389.679l-2.589-1.494a25.183,25.183,0,0,0-2.234,5.389l1.307.349a.4.4,0,0,1,.278.483.391.391,0,0,1-.48.275l-1.309-.349a25.354,25.354,0,0,0-.755,5.779h2.984a.394.394,0,1,1,0,.788H28.884a25.44,25.44,0,0,0,.566,4.976c.058.269.122.538.187.806l1.31-.352a.392.392,0,1,1,.2.758l-1.309.352a24.965,24.965,0,0,0,1.2,3.306H42.479A15.563,15.563,0,0,1,61.527,77.563l1.1-1.651a.392.392,0,0,1,.678.39l-.88,1.779A15.781,15.781,0,0,1,65.2,80.289a15.553,15.553,0,0,1,.714,21.245h11.44a25.188,25.188,0,0,0,1.2-3.306l-1.309-.352a.391.391,0,0,1-.279-.48.4.4,0,0,1,.48-.278l1.309.352c.067-.269.13-.537.189-.81a25.4,25.4,0,0,0,.566-4.973H76.528a.394.394,0,0,1,0-.788h2.984a25.361,25.361,0,0,0-.755-5.779l-1.309.349a.391.391,0,0,1-.48-.275.4.4,0,0,1,.279-.483l1.307-.349a25.251,25.251,0,0,0-2.234-5.389l-2.589,1.494a.391.391,0,1,1-.389-.679L75.927,78.3a25.4,25.4,0,0,0-3.552-4.627l-.955.954a.391.391,0,1,1-.552-.554ZM54.2,65.191a26.1,26.1,0,0,1,23.771,36.9.391.391,0,0,1-.357.23H30.782a.394.394,0,0,1-.362-.24,25.882,25.882,0,0,1-1.737-5.254A26.106,26.106,0,0,1,54.2,65.191ZM56.19,90.759a2.1,2.1,0,0,0-.317-.669l0-.007,0,0,0-.007,0,0h0l0-.006,0,0,0-.006,0,0v0l0,0,0-.006,0,0,0-.006h0l0-.007,0,0,0-.007,0,0h0l0-.006,0,0,0-.006,0,0h0l0-.007,0-.006,0,0,0,0,0,0,0,0,0-.006,0,0,0,0,0,0,0,0,0-.007,0,0v0l0,0-.005,0,0-.006,0,0,0,0,0,0,0,0,0-.007-.019-.019,0,0,0,0,0,0,0,0,0-.007,0,0h0l0-.007-.019-.019,0,0,0,0-.01-.01,0-.006,0,0,0,0v0l-.006,0,0,0-.006-.006,0,0h0l-.006-.007,0,0-.006,0,0,0,0,0,0,0,0-.006,0,0,0,0h0l0-.006,0,0,0,0,0,0,0,0,0,0-.006,0,0-.007h0l0,0,0,0,0-.006,0,0h0l0,0L55.5,89.7l0,0,0,0h0l-.006-.007,0,0-.006,0,0,0,0-.007-.006,0,0,0,0,0h0l-.006-.006,0,0,0,0,0,0,0,0,0,0,0,0-.006,0,0,0h0l0-.006-.006,0,0,0,0,0h0l-.006,0-.006-.006,0,0h0v0l-.006,0-.006,0,0,0,0,0,0,0-.006,0-.006,0,0,0,0,0h0l-.006,0-.006-.006,0,0h0l0,0,0,0-.013-.006h0l0,0-.006,0,0,0-.006-.007h0l-.006,0-.006,0,0,0-.006,0-.041-.022,0,0h0l0,0-.006,0,0,0,0,0h0l0,0-.006,0-.006,0,0,0h0l0,0-.006,0h-.006l-.006,0h0l0,0,0,0-.006,0-.006,0h0l-.006,0,0,0h-.006l0,0h0l0,0-.006,0-.006,0,0,0h0l-.006,0-.006,0-.006,0h0l0,0h0L55,89.4l0,0h0l0,0-.006,0h-.006l-.006,0-.022-.01h0l0,0h-.006l-.006,0,0,0h0l0,0h-.006l0,0-.006,0h-.006l-.006,0-.006,0h-.006l-.08-.029H54.79l-.046-.013-.006,0H54.73l0,0h-.01l-.008,0H54.7v0H54.69l-.006,0-.006,0h-.006l-.006,0h-.013l-.006,0h-.006l-.006,0h-.006l-.006,0h-.013l0,0h-.01l-.006,0h-.014l-.006,0h-.013l0,0h-.011l-.008,0h-.019l-.006,0H54.5l-.006,0h-.019l-.006,0h-.019l-.006,0h-.019l-.011,0H54.4a1.984,1.984,0,0,0-.739.061,2.059,2.059,0,0,0-1.242.941l-.011.019a2.064,2.064,0,0,0,.733,2.8l.053.032a2.062,2.062,0,0,0,2.77-.742L56,92.312A2.086,2.086,0,0,0,56.19,90.759Zm.44-.947a2.883,2.883,0,0,1,.318.745,2.833,2.833,0,0,1-.285,2.16l-.016.023a2.845,2.845,0,0,1-4.915-2.867l.013-.022a2.842,2.842,0,0,1,2.518-1.4l6.826-10.23a14.777,14.777,0,0,0-17.547,23.315H64.854a14.783,14.783,0,0,0-2.778-22.743Zm-1.008-.982.008,0,.006.007.008,0,.008.007h0l.008,0,.008.006.006,0,.008,0,0,0,.006,0,.006,0,.009.006.006,0,0,0,0,0,.008,0,.006.007.008,0,0,0,0,0,.006,0,.008.006.008,0,0,0,0,0,.006,0,.01.007.006.006.014.01.008,0,.006.006.006,0h0l.008.006.008.006.006,0,.006,0v0l.008,0,.008.007.006.006.006,0h0l.006.006.008.007.008,0,.006.007h0l.006.006.006,0,.008.007.014.01.006.006.013.01,0,0,0,0,.006.007.008.006.046.038.006,0,.006.006,0,0,0,0,.014.01,3.842-7.776-4.813,7.216.006,0,.008,0h.006l0,0h.008l.008,0,.006,0,.008,0h0l.006,0,.008,0,.008,0,.006,0h0l0,0h.006l.008,0,.008,0,.006,0h0l.01,0,.006,0,.008,0,.008,0h0l.008,0,.008,0,.006,0,.01,0h0l0,0,.008,0,.008,0,.006,0,.006,0,.01,0,.008,0,.008,0,.006,0,.008.006.008,0,.008,0,.008,0h0l0,0,.01,0,.045.022.006,0h0l.01,0,.022.013h0ZM78.569,62.468H29.827c-.082,0-.165,0-.245.01h-.048A3.842,3.842,0,0,0,26,66.292v35.7a3.837,3.837,0,0,0,3.826,3.824H78.569a3.836,3.836,0,0,0,3.81-3.491v-.01l0-.01,0-.019v-.01l0-.01,0-.01v-.022h0v-.01l0-.01,0-.029h0v-.022l0-.01v-.02l0-.01v-.086l0-.007v-.041h0v-35.7h0l0-.048h0v-.051h0l0-.048h0l0-.048h0l0-.048,0-.048v0l0-.045v0l-.007-.048,0-.048h0l-.006-.045v0l-.006-.045h0l-.007-.048h0l-.01-.048h0l-.007-.048-.009-.045h0l-.01-.048-.01-.045v0l-.01-.045-.013-.045-.011-.045v0l-.011-.045-.013-.045h0l-.013-.045-.014-.045h0l-.014-.045-.014-.045h0l-.016-.045-.016-.042v0l-.016-.042-.018-.045h0l-.016-.041h0l-.019-.045h0l-.019-.042h0l-.018-.042h0l-.021-.045h0l-.019-.041h0L82,64.6h0l-.022-.041h0l-.021-.041-.021-.038h0l-.022-.041-.024-.038v0l-.024-.038h0l-.022-.038h0l-.025-.041h0l-.024-.038-.024-.038h0l-.027-.038h0l-.026-.038h0l-.027-.035h0l-.026-.038h0l-.029-.038h0l-.027-.035h0l-.027-.035v0l-.029-.035h0l-.03-.035h0l-.029-.035h0l-.03-.035h0l-.03-.032v0l-.03-.032h0l-.032-.035h0l-.03-.032h0l-.032-.035h0l-.032-.032h0a3.918,3.918,0,0,0-1.09-.765l-.013-.006c-.093-.041-.189-.083-.288-.118l-.01,0-.034-.013-.045-.016-.01,0-.079-.026-.01,0-.173-.048-.006,0-.085-.019-.008,0-.038-.006-.006,0-.04-.01h-.006l-.04-.006-.006,0-.042-.006,0,0L79.2,62.52h0l-.042-.006h-.006l-.041-.006,0,0-.043,0,0,0-.045,0h0l-.046-.007h0l-.045,0h0l-.045-.006h-.048l0,0h-.049l-.046,0h0l-.048,0h-.1ZM29.95,108.2a.394.394,0,0,1,0-.787H61.756a.394.394,0,0,1,0,.787Zm18.626,2.675a.394.394,0,1,1,0-.787H70.583a.394.394,0,1,1,0,.787Zm24.261,0a.394.394,0,0,1,0-.787h2.752a.394.394,0,1,1,0,.787ZM28.7,110.814a.394.394,0,1,1,0-.787H39.127a.394.394,0,0,1,0,.787Zm1.36-49.133h48.57l.058,0h.061l.057,0h0l.058,0h0l.055,0h0l.054.007h0l.054.006h0l.054,0,0,0,.053.006h0l.051.006h0l.051.01h.006l.051.006.006,0,.05.007.008,0,.048.01h.008l.048.01.008,0,.048.01h.008l.046.013h.01l.045.013h.011l.043.013.055.013.013,0,.041.013.013,0,.042.013.055.016.013,0,.041.013.013.006.038.013.014,0,.04.016.013,0c.083.029.166.061.246.1l.016.006.035.016a4.612,4.612,0,0,1,1.426.97l0,0h0l.04.041h0l.038.038h0l.037.041h0l.038.038h0l.037.041h0l.037.041h0l.035.042h0l.035.045h0l.035.041h0l.035.045.035.041h0l.032.045h0l.034.045h0l.034.045h0l.03.045.032.048.03.045h0l.03.048h0l.03.045.029.048.029.048h0l.029.048.026.048h0l.029.051.026.048h0l.025.048.026.051.026.051.022.051.024.048.024.051.022.051.021.054.021.051.021.051.019.055.019.051.018.054.019.055h0l.016.054.018.054h0l.016.054.014.054.016.055.013.054.013.058.013.054.013.058.011.054.011.058h0l.01.058.01.055.006.058.01.058.006.058.006.058,0,.058,0,.061h0l0,.058,0,.058h0l0,.061,0,.058h0v.118h0v35.7h0v.144l0,.013,0,.013v.048l0,.013v.006l0,0v.055l0,.032,0,.01,0,.013v.013l0,.013,0,.01v.013l0,.013v0a4.411,4.411,0,0,1-.069.483A3.852,3.852,0,0,0,85,101.751a3.808,3.808,0,0,0,1-2.576v-35.7a3.835,3.835,0,0,0-3.824-3.824H33.435a3.79,3.79,0,0,0-2.208.707A3.858,3.858,0,0,0,30.059,61.681Z" transform="translate(-26.001 -59.649)" fill-rule="evenodd" fill="url(#a)"/></g></g></svg>