<svg xmlns="http://www.w3.org/2000/svg" xmlns:xlink="http://www.w3.org/1999/xlink" width="60" height="58.513" viewBox="0 0 60 58.513"><defs><linearGradient id="a" x1="0.5" x2="0.5" y2="1" gradientUnits="objectBoundingBox"><stop offset="0" stop-color="#8a3ffc"/><stop offset="1" stop-color="#d02670"/></linearGradient></defs><g transform="translate(-26.001 -31.702)"><g transform="translate(26.001 31.702)"><path d="M50.658,36.359a6.193,6.193,0,0,0,6.426.018C56.2,34.941,55.131,33.4,53.845,31.7l-.03.039-.03.039c-1.1,1.484-2.16,2.992-3.127,4.579M61.891,51.789l0,.132c-.111,4.188-.448,8.373-.5,12.57h2.554V53.673Zm-6.468-6.237a2.176,2.176,0,1,0,.637,1.538A2.168,2.168,0,0,0,55.423,45.552Zm-1.538-1.376a2.919,2.919,0,1,1-2.058.856A2.9,2.9,0,0,1,53.885,44.176Zm-8,7.61-2.055,1.887V64.492h2.557c-.048-3.482-.258-6.712-.409-10.206C45.935,53.454,45.9,52.618,45.881,51.786Zm9.95,9.818H51.938v4.371h3.893Zm.986,0H56.57v4.371h4.068c.027-10.125,2.334-19.693-3.172-28.968a6.96,6.96,0,0,1-5.642.679,6.877,6.877,0,0,1-1.544-.7c-3.506,5.979-3.849,10.155-3.62,16.112l0,.084,0,.039,0,.042,0,.084,0,.084,0,.084v.036l0,.048,0,.084.006.084,0,.084v.036l0,.048,0,.087.006.084c.165,3.653.379,7.105.421,10.75v.009c0,.364.006.733.009,1.106H51.2V61.6h-.25a.371.371,0,0,1-.369-.37V53.4a.369.369,0,0,1,.369-.37h5.865a.369.369,0,0,1,.369.37v7.838A.371.371,0,0,1,56.817,61.6Zm-5.495-.739h5.125v-7.1H51.322v7.1Zm16.118,2.6a.37.37,0,1,1-.739,0V57.443l-2,.79v6.261l2.35,4.726,2.379-4.729V58.23l-1.995-.805Zm-26.372,0a.37.37,0,0,1-.739,0V57.425l-1.992.805v6.264l2.377,4.726,2.35-4.726V58.233l-1.995-.79v6.024ZM58.5,79.835a.37.37,0,1,1-.739,0V74.607a.37.37,0,0,1,.739,0Zm-4.245.748a.37.37,0,0,1-.739,0V73.132a.37.37,0,0,1,.739,0Zm-2.121-1.5a.37.37,0,0,1-.739,0V71.633a.37.37,0,1,1,.739,0Zm1.382-8.833a.37.37,0,1,1,.739,0v1.76a.37.37,0,1,1-.739,0Zm4.245,0a.37.37,0,1,1,.739,0v2.779a.37.37,0,0,1-.739,0Zm1.929,4.287a.366.366,0,1,1-.31-.664A5.654,5.654,0,0,1,60.6,73.46a5.919,5.919,0,0,1,1.289-.144,6.44,6.44,0,0,1,.793.054,5.838,5.838,0,0,1,.607.114,2.865,2.865,0,0,1,.622-.309l.018,0a2.679,2.679,0,0,1,3.524,2.536,2.713,2.713,0,0,1-.2,1.022,5.974,5.974,0,0,1,.391,1.108,6.129,6.129,0,0,1,.147.916l.132-.012c.192-.018.376-.027.553-.027a5.812,5.812,0,0,1,1,.084,6.006,6.006,0,0,1,.811.2,2.675,2.675,0,0,1,3.863,2.4,2.636,2.636,0,0,1-.2,1,5.785,5.785,0,0,1,.312,1.015,5.907,5.907,0,0,1,.129,1.223l-.009.213h1.868a.37.37,0,1,1,0,.739H32.121a.37.37,0,0,1,0-.739h2.121c-.054-.171-.1-.346-.141-.52a5.089,5.089,0,0,1-.12-1.1,5.157,5.157,0,0,1,.117-1.085,5.027,5.027,0,0,1,.268-.853,2.586,2.586,0,0,1-.228-.532,2.742,2.742,0,0,1-.114-.772,2.673,2.673,0,0,1,4.612-1.845l.457-.021a5.218,5.218,0,0,1,.718.051l.237.039a5.017,5.017,0,0,1,.285-1.43,5.106,5.106,0,0,1,.733-1.364l-.036-.192A2.869,2.869,0,0,1,41,74.836a2.674,2.674,0,0,1,4.071-2.283,2.7,2.7,0,0,1,.892.9,5.077,5.077,0,0,1,2.16.9.368.368,0,0,1-.43.6,4.369,4.369,0,0,0-2.01-.787.365.365,0,0,1-.282-.2,1.939,1.939,0,0,0-3.665.88,2.264,2.264,0,0,0,.021.285,2.1,2.1,0,0,0,.06.267.372.372,0,0,1-.066.345,4.388,4.388,0,0,0-.727,1.295,4.34,4.34,0,0,0-.249,1.463l0,.177a.447.447,0,0,1-.015.111.367.367,0,0,1-.457.249,4.444,4.444,0,0,0-1.217-.168l-.283.006-.276.027a.366.366,0,0,1-.331-.132,1.939,1.939,0,0,0-3.44,1.226,1.919,1.919,0,0,0,.322,1.073.363.363,0,0,1,.03.355,4.249,4.249,0,0,0-.294.886,4.456,4.456,0,0,0-.1.928,4.366,4.366,0,0,0,.1.94,4.206,4.206,0,0,0,.207.676H73.65l0-.213a5.212,5.212,0,0,0-.111-1.073,5.384,5.384,0,0,0-.328-1.019.376.376,0,0,1,0-.307,1.917,1.917,0,0,0,.144-.409,1.991,1.991,0,0,0,.048-.433,1.939,1.939,0,0,0-1.938-1.938,1.971,1.971,0,0,0-.5.066,2.062,2.062,0,0,0-.451.186.376.376,0,0,1-.322.036,5,5,0,0,0-.847-.219,5.167,5.167,0,0,0-.874-.072,4.794,4.794,0,0,0-.484.021,4.49,4.49,0,0,0-.484.066l-.063.006a.369.369,0,0,1-.372-.363,5.075,5.075,0,0,0-.556-2.283.37.37,0,0,1,0-.328,2.007,2.007,0,0,0,.15-.421,1.936,1.936,0,0,0-1.887-2.382,1.92,1.92,0,0,0-.61.1l-.018.006a1.889,1.889,0,0,0-.559.3.365.365,0,0,1-.324.063A5.234,5.234,0,0,0,62.6,74.1l-.012,0a5.231,5.231,0,0,0-.7-.045,5.206,5.206,0,0,0-2.2.486ZM27.954,87.769a.37.37,0,0,1,0-.739h40.2a.37.37,0,0,1,0,.739Zm23.539,2.445a.37.37,0,0,1,0-.739H79.307a.37.37,0,0,1,0,.739Zm30.662,0a.37.37,0,0,1,0-.739h3.476a.37.37,0,0,1,0,.739ZM26.371,90.14a.37.37,0,1,1,0-.739H39.55a.37.37,0,1,1,0,.739ZM48.263,68.268h.983l.027,7.82a.37.37,0,0,0,.739,0l-.027-7.82h5.627l.027,7.82a.368.368,0,1,0,.736,0l-.027-7.82h3.158V66.715H48.263Z" transform="translate(-26.001 -31.702)" fill-rule="evenodd" fill="url(#a)"/></g></g></svg>