<svg xmlns="http://www.w3.org/2000/svg" xmlns:xlink="http://www.w3.org/1999/xlink" width="60" height="57.073" viewBox="0 0 60 57.073"><defs><linearGradient id="a" x1="0.5" x2="0.5" y2="1" gradientUnits="objectBoundingBox"><stop offset="0" stop-color="#8a3ffc"/><stop offset="1" stop-color="#d02670"/></linearGradient></defs><g transform="translate(-26.003 -37.224)"><g transform="translate(26.002 37.224)"><path d="M38.146,79.328V42.267l-.022.018-.018.009-.009,0-.022.018-.013.009-.009,0-.022.018-.013.009-.014,0-.022.018-.009.009-.014.009-.022.018-.009,0-.014.009-.027.018v0l-.022.013-.022.018h0l-.022.018-.018.014,0,0-.022.018-.018.013,0,0-.022.018-.014.013-.009,0-.022.018-.009.009-.009.009-.022.018-.009.009-.013.009-.022.018,0,.009-.014.013-.022.018,0,0-.018.014-.022.022h0l-.018.018-.022.018-.022.022-.018.018h0l-.022.022-.013.013,0,0-.022.022-.014.013,0,0-.058.062-.009.009a4.6,4.6,0,0,0-.5.638l-.009.009a4.421,4.421,0,0,0-.665,1.879v0l-.009.04v.04l0,.031v.013l0,.04h0l0,.045v.04l0,.031v.054l0,.045V80.788h0l0,0,0,0,0,0v0l0,0,0,0,0,0,0,0,0-.009h0v0l0,0,0,0,0-.009.013-.009,0,0,.013-.018,0,0,0,0,0-.009,0,0,0,0,0,0h0v0l0-.009.009,0,0,0,0,0,0,0,0-.009,0,0h0l0,0,0,0,0,0,0-.009,0,0,.009,0,0,0,0-.009h0l0,0,0,0,0,0,0,0,0,0,0-.009,0,0,.009,0h0l0,0,0,0,0,0,0-.009,0,0,0,0,0,0,.009,0h0l0,0,0-.009,0,0,0,0,0,0,0,0,.009,0,0-.009.022-.022.018-.018,0,0,.022-.022.014-.009.013-.013.022-.022.009,0,.013-.018.027-.022h0l.022-.022.022-.018h0l.027-.022.014-.013.009-.009.027-.022.009-.009.013-.009.027-.022,0,0,.022-.018.022-.018h0l.027-.022.018-.013.009,0,.027-.022.009-.009.013-.009L36.913,80l.009,0,.018-.013.027-.018v0l.027-.018.022-.013,0,0,.027-.018.014-.013.013,0,.027-.018.009-.009.018-.009.027-.018,0,0,.022-.013.027-.018h0l.027-.018.022-.013,0,0,.031-.018.013-.009.014-.009.027-.018.009,0,.018-.009.031-.018h0l.027-.018.022-.013h.009l.027-.018.018-.009.009,0,.031-.018.009,0,.018-.009.031-.018h0l.022-.014.027-.013h0l.027-.013.031-.018.031-.014.014,0,.013-.009.031-.014.009,0,.054-.022h0l.027-.013.027-.009,0,0,.031-.013.018,0,.013-.009.031-.009.009,0,.018-.009.031-.013.031-.009.027-.014h0Zm1.1-37.569v37.31h.009l.009,0h.022l.009,0h.044l.009,0h.04l.009,0h.049l.009,0h.062l.009,0h.093l.009,0H69.858V41.562H40.551A4.375,4.375,0,0,0,39.244,41.758ZM69.86,80.136H39.636l-.014,0h-.076l-.014,0h-.045l-.013,0h-.031l-.013,0H39.4l-.013,0h-.031l-.013,0h-.023l-.009,0h-.027l-.009,0h-.022l-.014,0h-.013l-.014,0-.031,0h-.014l-.013,0-.045.009h-.014l0,0h-.009l-.031,0,0,0-.089.018h0l-.1.027h-.013l-.009,0-.009,0h0l-.027,0-.013,0-.018,0L38.7,80.3l-.013,0-.018,0a3.741,3.741,0,0,0-.482.2l-.022.009-.08.04-.018.009-.062.036-.018.009-.058.036-.018.009-.036.018,0,0-.022.014-.013.013-.009,0-.027.013,0,0-.022.013-.014.009-.009.009-.027.013,0,0-.018.013-.018.014-.009,0-.049.036-.013.009-.009.009-.022.018h0l-.022.018-.013.009-.009.009-.022.018h0l-.022.018-.013.009-.009.009-.022.018v0L37.417,81l-.014.009-.009.009-.022.018,0,0-.018.018-.013.009-.009.009-.022.022h0l-.022.018-.014.014-.009.009-.022.018h0l-.022.022-.009.009-.013.013-.018.018-.027.027,0,0-.018.018-.013.018-.009,0-.022.027h0l-.022.027-.009,0-.014.018-.013.018-.009.009-.022.022h0l-.022.027,0,.009-.018.018-.013.013-.009.009-.018.027h0l-.018.027-.009.009-.013.018-.014.018,0,.009-.022.027h0l-.018.027-.009.009-.013.018-.009.018-.009.009-.018.027,0,0-.018.027,0,0-.014.022L36.7,81.8l-.009.013-.018.027v0l-.018.027,0,0-.014.022-.009.018-.009.013-.018.022v0l-.018.031-.018.027-.009.018-.009.013-.009.022,0,.009-.018.027v0l-.014.027-.009.013-.018.04,0,.009-.014.027,0,0-.014.027,0,.013-.009.018-.009.027,0,0-.013.031,0,0-.009.027-.009.014-.031.08v0l-.018.04,0,.018-.036.1,0,.013-.014.04,0,.009-.009.036h0l-.009.031v.013l-.009.018,0,.027,0,.009-.009.031h0l-.009.036,0,.009,0,.022L36.18,83h0l0,.036,0,.009,0,.022,0,.022,0,.014v.009l0,.027,0,.009h0l0,.036v.009l-.009.045,0,.022v.013l0,.009v.013l0,.022v.018l0,.031v0l-.009.049v.027l0,.009v.031l0,.018v.018l0,.027V83.6h0l0,.036V83.7l0,.022v.067h0v.049h0v.094h0v.022l0,.022v.049h0v.009l0,.036v0h0v.049l0,.027v.018l0,.022v.027l0,.014v.027l0,.04,0,0v0h0l0,.036v.013l0,.027v.013l0,0v.022l0,.018v0l0,.013,0,.027v.013l0,.031,0,.009,0,.031,0,0v.009l0,.027,0,.009v.009l0,.018,0,.018.009.045,0,.009v0l.009.027.009.045,0,.013,0,.022,0,.009,0,.013,0,.018,0,.013v.009l.013.031.009.045,0,.009,0,0,.009.031h0l0,.014,0,.022,0,0,0,.013.009.022v0l0,.013.009.022,0,.009,0,.013.009.018v.009l0,.013.009.018,0,.009,0,.013.009.018,0,.013,0,.009.009.018,0,.013,0,.009.009.018.022.054,0,.009.009.018,0,.013,0,.009.009.018,0,.013,0,0,.009.022.009.013,0,0,.009.018.04.076.009.018v0l.009.018.022.035.009.018,0,0,.009.018.014.018h0l.009.018.013.018h0l.009.018.014.018v0l.009.018.013.018h0l.014.018.009.018h0l.009.018.014.018h0l.009.018.013.018,0,0,.009.013.013.018v0l.014.009.009.018,0,.009.009.009.014.018,0,0,.009.014.014.018,0,0,.009.014.014.013,0,.009.009.009.014.018,0,.009.009.009.014.014.009.009,0,.009.014.018.009.009,0,0,.014.018h0l0,0,0,0,.031.031.027.036.014.013.009.009.009.009.009.009.013.014.009.009.031.031,0,0,.022.022a3.691,3.691,0,0,0,.736.571h0l.076.045h0l.08.04v0l.08.04h0l.04.018h0l.04.022h0l.04.018.08.036h0l.085.036h0l.04.013h0l.08.031h0l.04.013v0l.045.013h0l.04.013h0l.04.013h0l.045.013h0l.045.009v0l.045.009h0l.045.009v0l.045.009h0l.04.009h0l.045.009h0l.045.009h0l.045.009h0l.045.009h0l.045.009h0l.049,0h0l.045.009h0l.045,0h0l.045,0h0l.045,0h0l.049,0h0l.045,0H39.6l.045,0H69.856V85.847H41.127a.549.549,0,0,1,0-1.1H69.86v-1.79H41.127a.549.549,0,0,1,0-1.1H69.86V80.136ZM64.241,49.261H44.2v5.771H64.241Zm-20.588-1.1H64.79a.552.552,0,0,1,.549.549v6.864a.549.549,0,0,1-.549.549H43.653a.548.548,0,0,1-.549-.549V48.712A.551.551,0,0,1,43.653,48.163Zm34.722.67V47.453H73.707v1.379Zm0-2.477V41.874a.489.489,0,0,0-.147-.348.482.482,0,0,0-.353-.147H73.836a.125.125,0,0,0-.089.036.119.119,0,0,0-.04.089v4.851ZM73.707,79.038h1.785V52.661a.549.549,0,0,1,1.1,0V79.038h1.785V49.93H73.707V79.038Zm4.668,1.1H73.707v2.772l2.334,5.11,2.334-5.11V80.136ZM41.667,61.574a.549.549,0,1,1,0-1.1H66.776a.549.549,0,1,1,0,1.1Zm0,2.941a.547.547,0,1,1,0-1.093H66.776a.547.547,0,1,1,0,1.093ZM31.371,92a.549.549,0,0,1,0-1.1h37.69a.549.549,0,0,1,0,1.1ZM53.441,94.3a.549.549,0,0,1,0-1.1H79.522a.549.549,0,0,1,0,1.1Zm28.75,0a.549.549,0,0,1,0-1.1h3.263a.549.549,0,0,1,0,1.1Zm-52.306-.071a.549.549,0,0,1,0-1.1H42.243a.549.549,0,1,1,0,1.1Zm2.151-55.9a.549.549,0,0,0,0-1.1h-1.1a.552.552,0,0,0-.491.313.546.546,0,0,0,.491.785Zm4.387,0a.549.549,0,0,0,0-1.1h-1.1a.559.559,0,0,0-.5.313.548.548,0,0,0,.5.785Zm4.383,0a.549.549,0,1,0,0-1.1H39.712a.558.558,0,0,0-.5.313.548.548,0,0,0,.5.785Zm4.387,0a.549.549,0,1,0,0-1.1H44.1a.559.559,0,0,0-.5.313.548.548,0,0,0,.5.785Zm4.387,0a.549.549,0,1,0,0-1.1h-1.1a.552.552,0,0,0-.491.313.545.545,0,0,0,.491.785Zm4.387,0a.549.549,0,0,0,0-1.1h-1.1a.552.552,0,0,0-.491.313.546.546,0,0,0,.491.785Zm4.387,0a.549.549,0,0,0,0-1.1h-1.1a.552.552,0,0,0-.491.313.546.546,0,0,0,.491.785Zm4.387,0a.549.549,0,0,0,0-1.1h-1.1a.552.552,0,0,0-.491.313.545.545,0,0,0,.491.785Zm4.387,0a.549.549,0,0,0,0-1.1h-1.1a.559.559,0,0,0-.5.313.548.548,0,0,0,.5.785Zm4.383,0a.549.549,0,1,0,0-1.1H70.418a.559.559,0,0,0-.5.313.548.548,0,0,0,.5.785Zm4.387,0a.549.549,0,1,0,0-1.1H74.8a.558.558,0,0,0-.5.313.547.547,0,0,0,.5.785Zm3.495,0a.549.549,0,1,0,0-1.1h-.205a.552.552,0,0,0-.491.313.546.546,0,0,0,.491.785Zm-52.842-1.1a.551.551,0,0,0-.491.313.545.545,0,0,0,.491.785h1.1a.549.549,0,0,0,0-1.1ZM80.8,59.891a.549.549,0,1,0,1.1,0V58.8a.549.549,0,1,0-1.1,0Zm0,4.387a.549.549,0,1,0,1.1,0v-1.1a.549.549,0,0,0-1.1,0Zm0,4.387a.549.549,0,0,0,1.1,0v-1.1a.549.549,0,0,0-1.1,0Zm0,4.387a.549.549,0,0,0,1.1,0v-1.1a.549.549,0,0,0-1.1,0Zm0,4.387a.549.549,0,0,0,1.1,0v-1.1a.549.549,0,0,0-1.1,0Zm0,3.392a.549.549,0,0,0,1.1,0v-.1a.549.549,0,1,0-1.1,0Zm1.1-26.421a.549.549,0,1,0-1.1,0v1.1a.549.549,0,0,0,1.1,0ZM32.67,42.258H26.752v1.593h2.794a.549.549,0,1,1,0,1.1H26.752v2h1.593a.549.549,0,0,1,0,1.1H26.752v2h2.794a.549.549,0,1,1,0,1.1H26.752v2h1.593a.549.549,0,0,1,0,1.1H26.752v2h2.794a.549.549,0,1,1,0,1.1H26.752v2h1.593a.549.549,0,0,1,0,1.1H26.752v2h2.794a.549.549,0,1,1,0,1.1H26.752v2h1.593a.549.549,0,0,1,0,1.1H26.752v2h2.794a.549.549,0,1,1,0,1.1H26.752v2h1.593a.549.549,0,0,1,0,1.1H26.752v2h2.794a.547.547,0,1,1,0,1.093H26.752v2h1.593a.549.549,0,0,1,0,1.1H26.752v2h2.794a.549.549,0,1,1,0,1.1H26.752v2h1.593a.547.547,0,1,1,0,1.093H26.752v1.611H32.67Z" transform="translate(-26.002 -37.224)" fill-rule="evenodd" fill="url(#a)"/></g></g></svg>