<svg xmlns="http://www.w3.org/2000/svg" xmlns:xlink="http://www.w3.org/1999/xlink" width="60" height="57.383" viewBox="0 0 60 57.383"><defs><linearGradient id="a" x1="0.5" x2="0.5" y2="1" gradientUnits="objectBoundingBox"><stop offset="0" stop-color="#8a3ffc"/><stop offset="1" stop-color="#d02670"/></linearGradient></defs><g transform="translate(-26.001 -36.031)"><g transform="translate(26.001 36.031)"><path d="M60.484,36.031H47.52a1.566,1.566,0,0,0-1.556,1.56V56.747H62.04V37.591a1.563,1.563,0,0,0-1.557-1.56M50,84.335H60.419a.423.423,0,0,1,.422.422v1.756a.423.423,0,0,1-.422.422H50a.423.423,0,0,1-.422-.422V84.757A.422.422,0,0,1,50,84.335Zm10,.843h-9.58v.912H60Zm-12.439,0h-.967v.912h.967Zm-1.389-.843h1.81a.421.421,0,0,1,.422.422v1.756a.421.421,0,0,1-.422.422h-1.81a.421.421,0,0,1-.422-.422V84.757A.421.421,0,0,1,46.169,84.335Zm-2.4.843H42.8v.912h.967Zm-1.389-.843h1.81a.421.421,0,0,1,.422.422v1.756a.421.421,0,0,1-.422.422h-1.81a.421.421,0,0,1-.422-.422V84.757A.421.421,0,0,1,42.384,84.335Zm-2.4.843H39.02v.912h.967ZM38.6,84.335h1.81a.421.421,0,0,1,.422.422v1.756a.421.421,0,0,1-.422.422H38.6a.421.421,0,0,1-.422-.422V84.757A.422.422,0,0,1,38.6,84.335Zm-2.4.843h-.967v.912H36.2Zm-1.388-.843h1.81a.421.421,0,0,1,.422.422v1.756a.421.421,0,0,1-.422.422h-1.81a.421.421,0,0,1-.422-.422V84.757A.422.422,0,0,1,34.813,84.335Zm24.1-3.71h-.967v.912h.967Zm-1.389-.843h1.811a.421.421,0,0,1,.421.422v1.756a.421.421,0,0,1-.421.421H57.525a.422.422,0,0,1-.422-.421V80.2A.422.422,0,0,1,57.525,79.782Zm-2.4.843h-.967v.912h.967Zm-1.388-.843h1.81a.421.421,0,0,1,.422.422v1.756a.421.421,0,0,1-.422.421H53.74a.423.423,0,0,1-.422-.421V80.2A.423.423,0,0,1,53.74,79.782Zm-2.4.843h-.967v.912h.967Zm-1.388-.843h1.81a.421.421,0,0,1,.422.422v1.756a.421.421,0,0,1-.422.421h-1.81a.423.423,0,0,1-.422-.421V80.2A.423.423,0,0,1,49.954,79.782Zm-2.4.843h-.967v.912h.967Zm-1.389-.843h1.81a.421.421,0,0,1,.422.422v1.756a.421.421,0,0,1-.422.421h-1.81a.421.421,0,0,1-.422-.421V80.2A.421.421,0,0,1,46.169,79.782Zm-2.4.843H42.8v.912h.967Zm-1.389-.843h1.81a.421.421,0,0,1,.422.422v1.756a.421.421,0,0,1-.422.421h-1.81a.421.421,0,0,1-.422-.421V80.2A.421.421,0,0,1,42.384,79.782Zm-2.4.843H39.02v.912h.967ZM38.6,79.782h1.81a.421.421,0,0,1,.422.422v1.756a.421.421,0,0,1-.422.421H38.6a.421.421,0,0,1-.422-.421V80.2A.421.421,0,0,1,38.6,79.782Zm-2.4.843h-.967v.912H36.2Zm22.712-4.595h-.967v.912h.967Zm-1.389-.843h1.811a.421.421,0,0,1,.421.422v1.756a.421.421,0,0,1-.421.422H57.525a.422.422,0,0,1-.422-.422V75.609A.422.422,0,0,1,57.525,75.187Zm-2.4.843h-.967v.912h.967Zm-1.388-.843h1.81a.421.421,0,0,1,.422.422v1.756a.421.421,0,0,1-.422.422H53.74a.423.423,0,0,1-.422-.422V75.609A.423.423,0,0,1,53.74,75.187Zm-2.4.843h-.967v.912h.967Zm-1.388-.843h1.81a.421.421,0,0,1,.422.422v1.756a.421.421,0,0,1-.422.422h-1.81a.423.423,0,0,1-.422-.422V75.609A.423.423,0,0,1,49.954,75.187Zm-2.4.843h-.967v.912h.967Zm-1.389-.843h1.81a.421.421,0,0,1,.422.422v1.756a.421.421,0,0,1-.422.422h-1.81a.421.421,0,0,1-.422-.422V75.609A.421.421,0,0,1,46.169,75.187Zm-2.4.843H42.8v.912h.967Zm-1.389-.843h1.81a.421.421,0,0,1,.422.422v1.756a.421.421,0,0,1-.422.422h-1.81a.421.421,0,0,1-.422-.422V75.609A.421.421,0,0,1,42.384,75.187Zm-2.4.843H39.02v.912h.967ZM38.6,75.187h1.81a.421.421,0,0,1,.422.422v1.756a.421.421,0,0,1-.422.422H38.6a.421.421,0,0,1-.422-.422V75.609A.421.421,0,0,1,38.6,75.187Zm-2.4.843h-.967v.912H36.2Zm-1.388-.843h1.81a.421.421,0,0,1,.422.422v1.756a.421.421,0,0,1-.422.422h-1.81a.421.421,0,0,1-.422-.422V75.609A.421.421,0,0,1,34.813,75.187Zm27.941,5.438h-.967v.912h.967Zm-1.389-.843h1.81a.421.421,0,0,1,.422.422v1.756a.421.421,0,0,1-.422.421h-1.81a.422.422,0,0,1-.422-.421V80.2A.422.422,0,0,1,61.365,79.782Zm1.389-3.751h-.967v.912h.967Zm-1.389-.843h1.81a.421.421,0,0,1,.422.422v1.756a.421.421,0,0,1-.422.422h-1.81a.422.422,0,0,1-.422-.422V75.609A.422.422,0,0,1,61.365,75.187Zm5.229,5.438h-.967v.912h.967Zm-1.389-.843h1.81a.421.421,0,0,1,.422.422v1.756a.421.421,0,0,1-.422.421h-1.81a.422.422,0,0,1-.421-.421V80.2A.422.422,0,0,1,65.205,79.782Zm1.389-3.751h-.967v.912h.967Zm-1.389-.843h1.81a.421.421,0,0,1,.422.422v1.756a.421.421,0,0,1-.422.422h-1.81a.422.422,0,0,1-.421-.422V75.609A.422.422,0,0,1,65.205,75.187Zm5.229,5.438h-.967v.912h.967Zm-1.389-.843h1.81a.421.421,0,0,1,.422.422v1.756a.421.421,0,0,1-.422.421h-1.81a.423.423,0,0,1-.422-.421V80.2A.422.422,0,0,1,69.045,79.782Zm1.389-3.751h-.967v.912h.967Zm-1.389-.843h1.81a.421.421,0,0,1,.422.422v1.756a.421.421,0,0,1-.422.422h-1.81a.423.423,0,0,1-.422-.422V75.609A.422.422,0,0,1,69.045,75.187Zm-2.451,9.882h-.967v.912h.967Zm-1.389-.843h1.81a.421.421,0,0,1,.422.422V86.4a.421.421,0,0,1-.422.422h-1.81a.422.422,0,0,1-.421-.422V84.647A.422.422,0,0,1,65.205,84.225Zm5.229.843h-.967v.912h.967Zm-1.389-.843h1.81a.421.421,0,0,1,.422.422V86.4a.421.421,0,0,1-.422.422h-1.81a.423.423,0,0,1-.422-.422V84.647A.422.422,0,0,1,69.045,84.225ZM54,64.167H70.175v-18.9H62.884V56.747h2.433a.422.422,0,0,1,0,.843H42.687a.422.422,0,0,1,0-.843H45.12V45.264H37.83v18.9Zm22.23.844H31.772V67a2,2,0,0,0,1.99,1.992h40.48A2,2,0,0,0,76.232,67ZM53,66a1.416,1.416,0,0,1,2.032,1.972L55,68a1.417,1.417,0,1,1-2-2ZM47.912,45.535a.422.422,0,0,1,0-.844H60.091a.422.422,0,1,1,0,.844Zm4.212,2.386a.422.422,0,1,0,0-.843h-.844a.422.422,0,0,0,0,.843Zm3.37,0a.422.422,0,0,0,0-.843h-.844a.422.422,0,0,0,0,.843Zm3.369,0a.422.422,0,1,0,0-.843h-.842a.422.422,0,1,0,0,.843Zm-10.951-.843a.422.422,0,1,0,0,.843h.842a.422.422,0,1,0,0-.843Zm6.35,3.23a.422.422,0,0,1,0-.843h5.829a.422.422,0,1,1,0,.843Zm-6.35,2.387a.42.42,0,1,1,0-.84h4.7a.42.42,0,1,1,0,.84Zm0,2.39a.422.422,0,0,1,0-.843H60.091a.422.422,0,1,1,0,.843Zm7.214-2.39a.42.42,0,1,1,0-.84h2.631a.42.42,0,1,1,0,.84Zm-7.214-2.387a.422.422,0,0,1,0-.843h3.635a.422.422,0,0,1,0,.843Zm3.729-11.925a.42.42,0,0,1,.593.593l-1.308,1.306,1.308,1.306a.424.424,0,0,1,0,.6.418.418,0,0,1-.593,0L50.05,40.595l-.007-.007-.007-.007h0l-.005-.007,0,0-.005,0,0,0-.005-.007h0l-.005-.007,0,0-.005,0,0,0,0-.007h0l0-.007v0l-.005-.007v0l-.005,0,0,0,0-.007,0,0,0-.007h0l0-.007v0l0-.007,0,0,0-.007h0l0-.007v0l0-.007v0l0-.007,0,0,0-.007h0l0-.007,0,0,0-.007v0l0-.007v0l0-.007,0,0v-.007l0,0v-.018h0l0-.01h0v-.01h0l0-.007v-.085l0-.007v-.014l0-.007,0,0V40.2h0v-.01h0v-.007l0,0,0-.007v0l0-.007v0l0-.007,0,0,0-.007v0l0-.007h0l0-.007v0l0-.007v0l0-.007,0,0,0-.007h0l0-.007v0l0-.007,0,0,0-.007h0l0-.007,0,0,.005-.007h0l.005-.007v0l0-.007h0l0-.007,0,0,.005-.007h0l.005-.007,0,0,.005,0,0,0,.005-.007h0l.005-.007v0l.007,0,.007-.007Zm4.128.593a.42.42,0,0,1,.593-.593l1.591,1.591.007.007.007,0,0,0,0,.007h0l0,.007,0,0,.005,0,0,0,.005.007h0l.005.007,0,0,0,.007h0l0,.007,0,0,0,.007h0l0,.007,0,0,0,.007h0l0,.007,0,0,0,.007,0,0,0,.007h0l0,.007v0l0,.007v0l0,.007,0,0,0,.007h0v.007l0,0,0,.007,0,0v.01l0,.007v0l0,.007v.01h0l0,.01h0v.007l0,0v.017l0,0,0,.007v.085l0,.007h0v.01h0v.01h0v.01l0,.007,0,0v.01l0,.007v0l0,.007v.01l0,0,0,.007h0v.007l0,0,0,.007,0,0,0,.007v0l0,.007h0l0,.007,0,0,0,.007,0,0,0,.007h0l0,.007v0l0,.007,0,0,0,0,0,0,0,.007,0,0,0,.007h0l0,.007,0,0-.005,0,0,0-.005.007h0l-.005.007,0,0,0,0,0,0,0,.007h0l-.007.007-.007.007-1.591,1.591a.418.418,0,0,1-.593,0,.424.424,0,0,1,0-.6l1.308-1.306Zm-3.031-1.152a.42.42,0,1,1,.8-.264l1.728,5.184a.419.419,0,0,1-.8.264ZM82.056,73.4V51.237H72.94v12.93H71.017V44.843a.421.421,0,0,0-.422-.422H62.884V42.134H72.941v8.222h9.576a.451.451,0,0,1,.46.439v22.6A3.46,3.46,0,0,1,86,76.812v4.735a3.446,3.446,0,0,1-6.892,0V78.108h3.025v3.3a.422.422,0,0,0,.843,0v-3.3h1.642a.422.422,0,0,0,0-.843h-5.51v-.453A3.454,3.454,0,0,1,82.056,73.4Zm-48.7,8.044H26.481a.454.454,0,0,1-.48-.422V54.68a.454.454,0,0,1,.48-.422h8.582V42.134H45.119v2.287H37.408a.422.422,0,0,0-.422.422V64.167H35.063V55.1h-8.1V80.6h6.393V74.316H74.647v13.42H33.357Zm1.034-.5a.272.272,0,0,1,.009.076.268.268,0,0,1-.009.075v.857a.421.421,0,0,0,.422.421h1.81a.421.421,0,0,0,.422-.421V80.2a.421.421,0,0,0-.422-.422h-1.81a.421.421,0,0,0-.422.422Zm44.19,9.865a.422.422,0,0,1,0,.843H44.067a.422.422,0,1,1,0-.843ZM58.372,92.571a.422.422,0,0,1,0,.843H34.487a.422.422,0,0,1,0-.843Zm-26.33,0a.422.422,0,1,1,0,.843H29.056a.422.422,0,0,1,0-.843Zm47.9-.055a.422.422,0,1,1,0,.843H68.624a.422.422,0,0,1,0-.843ZM54,66.427a.58.58,0,0,0-.406.168.572.572,0,0,0,.406.977.559.559,0,0,0,.406-.168l.021-.017A.579.579,0,0,0,54.576,67,.574.574,0,0,0,54,66.427Z" transform="translate(-26.001 -36.031)" fill-rule="evenodd" fill="url(#a)"/></g></g></svg>