<svg xmlns="http://www.w3.org/2000/svg" xmlns:xlink="http://www.w3.org/1999/xlink" width="60" height="48.032" viewBox="0 0 60 48.032"><defs><linearGradient id="a" x1="0.5" x2="0.5" y2="1" gradientUnits="objectBoundingBox"><stop offset="0" stop-color="#8a3ffc"/><stop offset="1" stop-color="#d02670"/></linearGradient></defs><g transform="translate(-26.002 -71.879)"><g transform="translate(26.002 71.879)"><path d="M26.69,78.972H86V71.879H26.69Zm15.967.939v35.212H86V79.911ZM30.8,74.84a.828.828,0,0,0-1.171,1.172A.828.828,0,0,0,30.8,74.84Zm-.584-1.179a1.762,1.762,0,1,1-1.25.515A1.772,1.772,0,0,1,30.218,73.661Zm4.714,1.179a.83.83,0,1,0,.242.588A.83.83,0,0,0,34.932,74.84Zm-.586-1.179a1.763,1.763,0,1,1-1.247.515A1.769,1.769,0,0,1,34.346,73.661Zm4.716,1.179a.83.83,0,1,0,.242.588A.833.833,0,0,0,39.063,74.84Zm-.584-1.179a1.763,1.763,0,1,1-1.25.515A1.77,1.77,0,0,1,38.479,73.661Zm3.24,38.924H34.205a.469.469,0,0,1,0-.939h7.513v-2.377H34.205a.467.467,0,1,1,0-.935h7.513v-2.377H34.205a.469.469,0,0,1,0-.939h7.513v-2.377H34.205a.467.467,0,1,1,0-.935h7.513V99.329H34.205a.469.469,0,0,1,0-.939h7.513V96.016H34.205a.469.469,0,0,1,0-.939h7.513V92.7H34.205a.469.469,0,0,1,0-.939h7.513V89.388H34.205a.469.469,0,0,1,0-.939h7.513V86.072H34.205a.469.469,0,0,1,0-.939h7.513V82.761H34.205a.469.469,0,0,1,0-.939h7.513V79.911H26.69v1.912h2.734a.469.469,0,0,1,0,.939H26.69v2.373h2.734a.469.469,0,0,1,0,.939H26.69v2.377h2.734a.469.469,0,0,1,0,.939H26.69v2.373h2.734a.469.469,0,0,1,0,.939H26.69v2.377h2.734a.469.469,0,0,1,0,.939H26.69v2.373h2.734a.469.469,0,0,1,0,.939H26.69v2.377h2.734a.467.467,0,1,1,0,.935H26.69v2.377h2.734a.469.469,0,0,1,0,.939H26.69v2.377h2.734a.467.467,0,1,1,0,.935H26.69v2.377h2.734a.469.469,0,0,1,0,.939H26.69v2.537H41.719v-2.538ZM82.776,82.712H46.359V86.39H82.776Zm-36.885-.939H83.245a.469.469,0,0,1,.469.469v4.617a.469.469,0,0,1-.469.47H45.891a.469.469,0,0,1-.469-.47V82.242A.469.469,0,0,1,45.891,81.773ZM69.138,99.905H45.891a.468.468,0,0,1-.469-.466V89.7a.469.469,0,0,1,.469-.469H69.138a.47.47,0,0,1,.469.469V99.44A.47.47,0,0,1,69.138,99.905Zm-22.78-.935h22.31v-8.8H46.359Zm-.468,3.8a.469.469,0,0,1,0-.939H63.464a.469.469,0,0,1,0,.939Zm5.672,1.755a.469.469,0,0,1,0-.939H80.936a.469.469,0,0,1,0,.939Zm-5.672,2.362a.469.469,0,0,1,0-.939H63.464a.469.469,0,0,1,0,.939Zm5.672,1.755a.469.469,0,0,1,0-.939H80.936a.469.469,0,0,1,0,.939Zm-5.672,2.362a.469.469,0,0,1,0-.939H63.464a.469.469,0,0,1,0,.939Zm-13.555,7.433a.469.469,0,1,1,0-.939H66.6a.469.469,0,0,1,0,.939ZM50.6,119.911a.469.469,0,1,1,0-.939H77.321a.469.469,0,1,1,0,.939Zm29.453,0a.469.469,0,0,1,0-.939H83.4a.469.469,0,0,1,0,.939Zm-53.584-.046a.469.469,0,0,1,0-.939h12.66a.469.469,0,0,1,0,.939Zm25.092-7.1a.469.469,0,0,1,0-.939H80.936a.469.469,0,0,1,0,.939Z" transform="translate(-26.002 -71.879)" fill-rule="evenodd" fill="url(#a)"/></g></g></svg>