<svg xmlns="http://www.w3.org/2000/svg" xmlns:xlink="http://www.w3.org/1999/xlink" width="60" height="45.493" viewBox="0 0 60 45.493"><defs><linearGradient id="a" x1="0.5" x2="0.5" y2="1" gradientUnits="objectBoundingBox"><stop offset="0" stop-color="#8a3ffc"/><stop offset="1" stop-color="#d02670"/></linearGradient></defs><g transform="translate(-26.002 -81.61)"><g transform="translate(26.002 81.61)"><path d="M80.534,84.307H31.47a2.064,2.064,0,0,0-2.062,2.062v30.408H82.6V86.369a2.054,2.054,0,0,0-.583-1.434l-.023-.021a2.049,2.049,0,0,0-1.455-.606M64.261,117.654H47.743v1.616H64.262v-1.616Zm18.784,0H65.139v2.055a.44.44,0,0,1-.439.438H47.3a.438.438,0,0,1-.437-.438v-2.055H26v2.258l15.623,3H70.379l15.623-3v-2.258ZM79.384,87.3H32.622v26.485H79.384Zm-17.13,2.993H35.52v1.177H62.253Zm-27.172-.878h27.61a.438.438,0,0,1,.439.439v2.054a.441.441,0,0,1-.439.439H35.082a.44.44,0,0,1-.437-.439V89.854A.438.438,0,0,1,35.082,89.415Zm.986,5.112a.437.437,0,1,1,0-.874H47.539a.437.437,0,1,1,0,.874Zm0,1.969a.439.439,0,0,1,0-.877H71.424a.439.439,0,1,1,0,.877Zm4.38,1.969a.439.439,0,1,0,0-.877h-.876a.449.449,0,0,0-.394.246.44.44,0,0,0,.394.631Zm3.506,0a.439.439,0,1,0,0-.877h-.876a.447.447,0,0,0-.394.246.439.439,0,0,0,.394.631Zm3.507,0a.439.439,0,0,0,0-.877h-.878a.446.446,0,0,0-.392.246.439.439,0,0,0,.392.631Zm3.506,0a.439.439,0,0,0,0-.877H50.09a.447.447,0,0,0-.394.246.44.44,0,0,0,.394.631Zm3.5,0a.439.439,0,0,0,0-.877H53.6a.447.447,0,0,0-.394.246.44.44,0,0,0,.394.631Zm3.506,0a.439.439,0,0,0,0-.877H57.1a.45.45,0,0,0-.4.246.441.441,0,0,0,.4.631Zm3.5,0a.439.439,0,1,0,0-.877h-.876a.449.449,0,0,0-.394.246.439.439,0,0,0,.394.631Zm3.506,0a.439.439,0,0,0,0-.877h-.876a.447.447,0,0,0-.394.246.44.44,0,0,0,.394.631Zm3.507,0a.439.439,0,0,0,0-.877h-.878a.445.445,0,0,0-.392.246.439.439,0,0,0,.392.631Zm2.928,0a.439.439,0,0,0,0-.877h-.3a.444.444,0,0,0-.392.246.439.439,0,0,0,.392.631Zm-35.356-.877a.447.447,0,0,0-.394.246.44.44,0,0,0,.394.631h.876a.439.439,0,0,0,0-.877Zm0,3.4a.439.439,0,0,1,0-.878H47.539a.439.439,0,0,1,0,.878Zm0,1.969a.439.439,0,0,1,0-.878H71.424a.439.439,0,1,1,0,.878Zm0,1.969a.439.439,0,0,1,0-.877H71.424a.439.439,0,1,1,0,.877Zm0,2.525a.439.439,0,0,1,0-.877H47.539a.439.439,0,0,1,0,.877Zm0,1.969a.439.439,0,0,1,0-.877H71.424a.439.439,0,1,1,0,.877Zm4.38,1.969a.439.439,0,1,0,0-.878h-.876a.439.439,0,1,0,0,.878Zm3.506,0a.439.439,0,1,0,0-.878h-.876a.439.439,0,0,0,0,.878Zm3.507,0a.439.439,0,0,0,0-.878h-.878a.439.439,0,0,0,0,.878Zm3.506,0a.439.439,0,0,0,0-.878H50.09a.439.439,0,0,0,0,.878Zm3.5,0a.439.439,0,0,0,0-.878H53.6a.439.439,0,0,0,0,.878Zm3.506,0a.439.439,0,0,0,0-.878H57.1a.439.439,0,1,0,0,.878Zm3.5,0a.439.439,0,1,0,0-.878h-.876a.439.439,0,0,0,0,.878Zm3.506,0a.439.439,0,0,0,0-.878h-.876a.439.439,0,0,0,0,.878Zm3.507,0a.439.439,0,0,0,0-.878h-.878a.439.439,0,0,0,0,.878Zm2.928,0a.439.439,0,0,0,0-.878h-.3a.439.439,0,0,0,0,.878Zm-35.356-.878a.439.439,0,0,0,0,.878h.876a.439.439,0,0,0,0-.878Zm-5.514,14.721a.439.439,0,1,1,0-.877h37a.439.439,0,0,1,0,.877ZM52.219,127.1a.439.439,0,1,1,0-.877h25.6a.439.439,0,0,1,0,.877Zm28.224,0a.439.439,0,0,1,0-.877h3.2a.439.439,0,1,1,0,.877ZM29.1,127.061a.439.439,0,0,1,0-.877H41.23a.439.439,0,0,1,0,.877ZM27.511,97.34a.439.439,0,0,1-.878,0V84.549a2.953,2.953,0,0,1,2.939-2.939h4.3a.439.439,0,1,1,0,.877h-4.3a2.07,2.07,0,0,0-2.062,2.062Zm4.673-10.918H79.821a.438.438,0,0,1,.439.439v27.362a.438.438,0,0,1-.439.439H32.184a.438.438,0,0,1-.439-.439V86.861A.438.438,0,0,1,32.184,86.422Z" transform="translate(-26.002 -81.61)" fill-rule="evenodd" fill="url(#a)"/></g></g></svg>