<svg xmlns="http://www.w3.org/2000/svg" xmlns:xlink="http://www.w3.org/1999/xlink" width="60" height="60.029" viewBox="0 0 60 60.029"><defs><linearGradient id="a" x1="0.5" x2="0.5" y2="1" gradientUnits="objectBoundingBox"><stop offset="0" stop-color="#8a3ffc"/><stop offset="1" stop-color="#d02670"/></linearGradient></defs><g transform="translate(-26.115 -26.002)"><g transform="translate(26.115 26.002)"><path d="M75.9,36.569V53.252h1.88V36.521a2.269,2.269,0,0,0-2.262-2.258H32.052a2.269,2.269,0,0,0-2.262,2.258v31.3a2.269,2.269,0,0,0,2.262,2.258H75.515a2.269,2.269,0,0,0,2.262-2.258V59.156H75.9v2.959a.451.451,0,0,1-.452.452H32.015a.45.45,0,0,1-.448-.452V36.569a.45.45,0,0,1,.448-.452h43.43a.451.451,0,0,1,.452.452M59,70.982H48.566L46.481,78.9H61.086ZM39.373,79.808v2.3H68.194v-2.3ZM54.187,67.3a.569.569,0,0,0-.973.4.566.566,0,0,0,.165.4.557.557,0,0,0,.4.169.564.564,0,0,0,.385-.147l.018-.022a.566.566,0,0,0,.165-.4.581.581,0,0,0-.147-.389Zm-.4-1.068a1.48,1.48,0,0,1,1.043.43l.029.029a1.477,1.477,0,0,1-.029,2.052l-.037.033a1.472,1.472,0,1,1-1.006-2.544Zm2.4-32.875H74.924a.451.451,0,0,1-.136-.426,2.755,2.755,0,0,0-.136-1.645,2.89,2.89,0,0,0-.778-1.076l-.026-.018a2.845,2.845,0,0,0-1.219-.6,2.762,2.762,0,0,0-1.645.15.472.472,0,0,1-.239.03.447.447,0,0,1-.374-.514,2.984,2.984,0,0,0,.033-.452,2.81,2.81,0,0,0-.668-1.817,2.781,2.781,0,0,0-1.685-.955A3.343,3.343,0,0,0,67.6,26a2.768,2.768,0,0,0-1.329.334l-.029.015a2.83,2.83,0,0,0-1,.94l-.015.022a.452.452,0,0,1-.62.151,2.306,2.306,0,0,0-2.185-.129,2.309,2.309,0,0,0-1.329,1.7.452.452,0,0,1-.448.415h-.033a2.37,2.37,0,0,0-1.66.668,2.314,2.314,0,0,0-.694,1.6l.007.257.03.275a.451.451,0,0,1-.459.441,2.256,2.256,0,0,0-1.233.345A2.7,2.7,0,0,0,56.188,33.36ZM45.174,43.475H40.085v5.089h5.089Zm-5.54-.9h5.992a.451.451,0,0,1,.452.452v5.992a.454.454,0,0,1-.452.452H39.634a.454.454,0,0,1-.452-.452V43.023A.451.451,0,0,1,39.634,42.572Zm16.94,5.992-2.842-4.677L50.89,48.563Zm-2.442-5.75L57.76,48.78a.45.45,0,0,1-.386.683l-7.284,0a.454.454,0,0,1-.452-.452.436.436,0,0,1,.084-.264l3.624-5.962a.453.453,0,0,1,.62-.151A.444.444,0,0,1,54.132,42.814ZM59.9,59.156a.464.464,0,0,1-.253-.1l0,0L55.726,56.6a.482.482,0,0,1-.172-.162.444.444,0,0,1,.143-.617l3.954-2.482a.442.442,0,0,1,.272-.092H74.994V37.02H32.467V61.664H74.994V59.156H59.9ZM56.779,56.2l3.268,2.049h3.076V56.56a.45.45,0,1,1,.9,0v1.693H80.714v-1.6H68.55a.452.452,0,1,1,0-.9H80.714v-1.6H60.047Zm24.838-2.049v4.1h.661v-4.1h-.661Zm1.564,0v4.1H84.65a1.473,1.473,0,0,0,1.465-1.469V55.62a1.473,1.473,0,0,0-1.465-1.465ZM66.1,44.249a2.415,2.415,0,1,0,.7,1.7A2.4,2.4,0,0,0,66.1,44.249ZM35.782,53.806a.452.452,0,0,1,0-.9H50.373a.452.452,0,0,1,0,.9Zm0,2.328a.452.452,0,0,1,0-.9H50.373a.452.452,0,0,1,0,.9ZM29.082,84a.452.452,0,0,1,0-.9H62.47a.452.452,0,1,1,0,.9Zm19.551,2.034a.452.452,0,0,1,0-.9h23.1a.452.452,0,1,1,0,.9Zm25.469,0a.452.452,0,0,1,0-.9h2.89a.452.452,0,1,1,0,.9Zm-46.335-.062a.452.452,0,0,1,0-.9H38.712a.452.452,0,0,1,0,.9ZM27.018,47.62a.452.452,0,1,1-.9,0V34.208a3.479,3.479,0,0,1,3.469-3.47h7.707a.452.452,0,0,1,0,.9H29.584a2.563,2.563,0,0,0-2.566,2.566ZM77.982,31.642a.452.452,0,1,1,0-.9,3.478,3.478,0,0,1,3.469,3.47v5.669a.452.452,0,1,1-.9,0V34.208a2.57,2.57,0,0,0-2.566-2.566Zm-13.577,11a3.316,3.316,0,1,1-2.339.973A3.294,3.294,0,0,1,64.405,42.641Z" transform="translate(-26.115 -26.002)" fill-rule="evenodd" fill="url(#a)"/></g></g></svg>