<svg xmlns="http://www.w3.org/2000/svg" xmlns:xlink="http://www.w3.org/1999/xlink" width="60" height="55.419" viewBox="0 0 60 55.419"><defs><linearGradient id="a" x1="0.5" x2="0.5" y2="1" gradientUnits="objectBoundingBox"><stop offset="0" stop-color="#8a3ffc"/><stop offset="1" stop-color="#d02670"/></linearGradient></defs><g transform="translate(-26.002 -43.563)"><g transform="translate(26.002 43.563)"><path d="M67.292,53.236h9.029l-9.029-9.025Zm9.67.91H66.837a.455.455,0,0,1-.455-.455V43.563H37.444V89.4H76.962ZM74.119,90.308H36.989a.454.454,0,0,1-.455-.452V45.872H34.6V91.71H74.119v-1.4ZM71.81,92.617H34.146a.455.455,0,0,1-.455-.455V47.826h-1.4V93.664H71.81ZM65.842,63.35a12.214,12.214,0,1,0-.022,17.3l.022-.022a12.217,12.217,0,0,0,0-17.278ZM57.2,58.861a13.125,13.125,0,0,1,9.281,22.407l-.03.03A13.124,13.124,0,1,1,57.2,58.861ZM67.211,71.3l-6.25-3.538v.855L66.2,71.587a.467.467,0,0,1,.181.178.456.456,0,0,1-.17.618L60.96,75.358v.855l6.25-3.541ZM60.757,66.61l7.131,4.037a.448.448,0,0,1,.229.392l0,1.9a.455.455,0,0,1-.263.411l-7.131,4.033a.452.452,0,0,1-.618-.17.443.443,0,0,1-.059-.222v-1.9a.455.455,0,0,1,.263-.411l4.755-2.69-4.789-2.712a.456.456,0,0,1-.229-.392v-1.9a.453.453,0,0,1,.707-.377ZM46.518,70.647l7.134-4.037a.453.453,0,0,1,.707.377v1.9a.46.46,0,0,1-.233.392L49.337,71.99l4.759,2.69a.455.455,0,0,1,.263.411v1.9a.488.488,0,0,1-.063.222.45.45,0,0,1-.618.17L46.55,73.348a.456.456,0,0,1-.263-.411v-1.9A.456.456,0,0,1,46.518,70.647Zm6.931-2.883L47.2,71.3v1.369l6.25,3.541v-.855l-5.255-2.975a.453.453,0,0,1-.17-.618.461.461,0,0,1,.181-.178l5.244-2.968Zm5.862-2.946a.452.452,0,1,1,.851.307L55.1,79.158a.452.452,0,1,1-.851-.307ZM28.037,96.543a.455.455,0,1,1,0-.91h40.08a.455.455,0,0,1,0,.91Zm23.469,2.439a.455.455,0,1,1,0-.91H79.241a.455.455,0,1,1,0,.91Zm30.574,0a.455.455,0,1,1,0-.91h3.467a.455.455,0,1,1,0,.91Zm-55.622-.074a.455.455,0,0,1,0-.91H39.6a.455.455,0,0,1,0,.91Z" transform="translate(-26.002 -43.563)" fill-rule="evenodd" fill="url(#a)"/></g></g></svg>